<svg width="32" height="32" viewBox="0 0 32 32" fill="none" xmlns="http://www.w3.org/2000/svg">
<g clip-path="url(#clip0)">
<path d="M22.4 12.7L20.9 11.2L14.3 17.8L11.1 14.6L9.59998 16.1L14.3 20.8L22.4 12.7Z" fill="white"/>
<path d="M16 32C15.2 32 14.3 31.7 13.7 31L11.6 29C11.2 28.6 10.5 28.3 10 28.3H7C5.2 28.3 3.7 26.8 3.7 25V22C3.7 21.5 3.4 20.7 3 20.4L1 18.3C0.4 17.7 0 16.9 0 16C0 15.1 0.3 14.3 1 13.7L3 11.6C3.4 11.2 3.7 10.5 3.7 9.99999V6.99999C3.7 5.19999 5.2 3.69999 7 3.69999H10C10.5 3.69999 11.3 3.39999 11.6 2.99999L13.7 0.999994C15 -0.300006 17 -0.300006 18.3 0.999994L20.4 2.99999C20.8 3.39999 21.5 3.69999 22 3.69999H25C26.8 3.69999 28.3 5.19999 28.3 6.99999V9.99999C28.3 10.5 28.6 11.3 29 11.6L31.1 13.7C32.4 15 32.4 17.1 31.1 18.4L29 20.4C28.6 20.8 28.3 21.5 28.3 22V25C28.3 26.8 26.8 28.3 25 28.3H22C21.5 28.3 20.7 28.6 20.4 29L18.3 31C17.7 31.7 16.8 32 16 32ZM7 5.19999C6 5.19999 5.2 5.99999 5.2 6.99999V9.99999C5.2 10.9 4.7 12.1 4.1 12.7L2 14.7C1.7 15 1.5 15.5 1.5 16C1.5 16.5 1.7 16.9 2 17.3L4.1 19.4C4.7 20 5.2 21.2 5.2 22.1V25C5.2 26 6 26.8 7 26.8H10C10.9 26.8 12.1 27.3 12.7 27.9L14.8 30C15.5 30.7 16.6 30.7 17.3 30L19.4 27.9C20 27.3 21.2 26.8 22.1 26.8H25C26 26.8 26.8 26 26.8 25V22.1C26.8 21.2 27.3 20 27.9 19.4L30 17.3C30.7 16.6 30.7 15.5 30 14.8L27.9 12.7C27.3 12.1 26.8 10.9 26.8 9.99999V6.99999C26.8 5.99999 26 5.19999 25 5.19999H22C21.1 5.19999 19.9 4.69999 19.3 4.09999L17.3 1.99999C16.6 1.29999 15.5 1.29999 14.8 1.99999L12.7 4.09999C12 4.79999 10.8 5.19999 9.9 5.19999H7Z" fill="white"/>
</g>
<defs>
<clipPath id="clip0">
<rect width="32" height="32" fill="white"/>
</clipPath>
</defs>
</svg>
